<mxfile host="app.diagrams.net" modified="2021-01-06T18:36:46.705Z" agent="5.0 (Windows)" etag="hrSF1hHcWR1pn56kd-Ft" version="13.10.0" type="github">
  <diagram id="jYDdqFXaDa2pkgbmwGGC" name="Page-1">
    <mxGraphModel dx="1038" dy="577" grid="1" gridSize="10" guides="1" tooltips="1" connect="1" arrows="1" fold="1" page="1" pageScale="1" pageWidth="827" pageHeight="1169" math="0" shadow="0">
      <root>
        <mxCell id="0" />
        <mxCell id="1" parent="0" />
        <mxCell id="vGkKIb1Py9J2XmLNlMeF-21" style="edgeStyle=orthogonalEdgeStyle;rounded=0;orthogonalLoop=1;jettySize=auto;html=1;exitX=1;exitY=0.25;exitDx=0;exitDy=0;entryX=0;entryY=0.25;entryDx=0;entryDy=0;" edge="1" parent="1" source="vGkKIb1Py9J2XmLNlMeF-1" target="vGkKIb1Py9J2XmLNlMeF-9">
          <mxGeometry relative="1" as="geometry" />
        </mxCell>
        <mxCell id="vGkKIb1Py9J2XmLNlMeF-29" style="edgeStyle=orthogonalEdgeStyle;rounded=0;orthogonalLoop=1;jettySize=auto;html=1;exitX=0;exitY=0.5;exitDx=0;exitDy=0;entryX=1;entryY=0.5;entryDx=0;entryDy=0;" edge="1" parent="1" source="vGkKIb1Py9J2XmLNlMeF-30" target="vGkKIb1Py9J2XmLNlMeF-7">
          <mxGeometry relative="1" as="geometry" />
        </mxCell>
        <mxCell id="vGkKIb1Py9J2XmLNlMeF-33" style="edgeStyle=orthogonalEdgeStyle;rounded=0;orthogonalLoop=1;jettySize=auto;html=1;exitX=1;exitY=0.75;exitDx=0;exitDy=0;entryX=0;entryY=0.75;entryDx=0;entryDy=0;" edge="1" parent="1" source="vGkKIb1Py9J2XmLNlMeF-1" target="vGkKIb1Py9J2XmLNlMeF-9">
          <mxGeometry relative="1" as="geometry" />
        </mxCell>
        <mxCell id="vGkKIb1Py9J2XmLNlMeF-1" value="" style="rounded=1;whiteSpace=wrap;html=1;" vertex="1" parent="1">
          <mxGeometry x="354" y="180" width="120" height="100" as="geometry" />
        </mxCell>
        <mxCell id="vGkKIb1Py9J2XmLNlMeF-2" value="SYSTEM" style="text;html=1;strokeColor=none;fillColor=none;align=center;verticalAlign=middle;whiteSpace=wrap;rounded=0;" vertex="1" parent="1">
          <mxGeometry x="394" y="230" width="40" height="20" as="geometry" />
        </mxCell>
        <mxCell id="vGkKIb1Py9J2XmLNlMeF-4" value="Zarząd" style="text;html=1;strokeColor=none;fillColor=none;align=center;verticalAlign=middle;whiteSpace=wrap;rounded=0;" vertex="1" parent="1">
          <mxGeometry x="110" y="230" width="40" height="20" as="geometry" />
        </mxCell>
        <mxCell id="vGkKIb1Py9J2XmLNlMeF-17" style="edgeStyle=orthogonalEdgeStyle;rounded=0;orthogonalLoop=1;jettySize=auto;html=1;exitX=1;exitY=0.25;exitDx=0;exitDy=0;entryX=0;entryY=0.25;entryDx=0;entryDy=0;" edge="1" parent="1" source="vGkKIb1Py9J2XmLNlMeF-7" target="vGkKIb1Py9J2XmLNlMeF-1">
          <mxGeometry relative="1" as="geometry" />
        </mxCell>
        <mxCell id="vGkKIb1Py9J2XmLNlMeF-37" style="edgeStyle=orthogonalEdgeStyle;rounded=0;orthogonalLoop=1;jettySize=auto;html=1;exitX=1;exitY=0.75;exitDx=0;exitDy=0;entryX=0;entryY=0.75;entryDx=0;entryDy=0;" edge="1" parent="1" source="vGkKIb1Py9J2XmLNlMeF-7" target="vGkKIb1Py9J2XmLNlMeF-1">
          <mxGeometry relative="1" as="geometry" />
        </mxCell>
        <mxCell id="vGkKIb1Py9J2XmLNlMeF-7" value="" style="rounded=0;whiteSpace=wrap;html=1;" vertex="1" parent="1">
          <mxGeometry x="40" y="180" width="160" height="100" as="geometry" />
        </mxCell>
        <mxCell id="vGkKIb1Py9J2XmLNlMeF-8" value="Zarząd" style="text;html=1;strokeColor=none;fillColor=none;align=center;verticalAlign=middle;whiteSpace=wrap;rounded=0;" vertex="1" parent="1">
          <mxGeometry x="100" y="225" width="40" height="20" as="geometry" />
        </mxCell>
        <mxCell id="vGkKIb1Py9J2XmLNlMeF-25" style="edgeStyle=orthogonalEdgeStyle;rounded=0;orthogonalLoop=1;jettySize=auto;html=1;exitX=0;exitY=0.5;exitDx=0;exitDy=0;entryX=1;entryY=0.5;entryDx=0;entryDy=0;" edge="1" parent="1" source="vGkKIb1Py9J2XmLNlMeF-22" target="vGkKIb1Py9J2XmLNlMeF-1">
          <mxGeometry relative="1" as="geometry" />
        </mxCell>
        <mxCell id="vGkKIb1Py9J2XmLNlMeF-9" value="" style="rounded=0;whiteSpace=wrap;html=1;" vertex="1" parent="1">
          <mxGeometry x="640" y="180" width="120" height="100" as="geometry" />
        </mxCell>
        <mxCell id="vGkKIb1Py9J2XmLNlMeF-10" value="Pracownik" style="text;html=1;strokeColor=none;fillColor=none;align=center;verticalAlign=middle;whiteSpace=wrap;rounded=0;" vertex="1" parent="1">
          <mxGeometry x="680" y="230" width="40" height="20" as="geometry" />
        </mxCell>
        <mxCell id="vGkKIb1Py9J2XmLNlMeF-11" value="Admin" style="rounded=0;whiteSpace=wrap;html=1;" vertex="1" parent="1">
          <mxGeometry x="354" y="370" width="120" height="60" as="geometry" />
        </mxCell>
        <mxCell id="vGkKIb1Py9J2XmLNlMeF-12" value="" style="endArrow=classic;html=1;exitX=0.75;exitY=0;exitDx=0;exitDy=0;entryX=0.75;entryY=1;entryDx=0;entryDy=0;" edge="1" parent="1" source="vGkKIb1Py9J2XmLNlMeF-11" target="vGkKIb1Py9J2XmLNlMeF-1">
          <mxGeometry width="50" height="50" relative="1" as="geometry">
            <mxPoint x="390" y="320" as="sourcePoint" />
            <mxPoint x="440" y="270" as="targetPoint" />
          </mxGeometry>
        </mxCell>
        <mxCell id="vGkKIb1Py9J2XmLNlMeF-13" value="" style="endArrow=classic;html=1;entryX=0.25;entryY=0;entryDx=0;entryDy=0;exitX=0.25;exitY=1;exitDx=0;exitDy=0;" edge="1" parent="1" source="vGkKIb1Py9J2XmLNlMeF-1" target="vGkKIb1Py9J2XmLNlMeF-11">
          <mxGeometry width="50" height="50" relative="1" as="geometry">
            <mxPoint x="390" y="320" as="sourcePoint" />
            <mxPoint x="440" y="270" as="targetPoint" />
          </mxGeometry>
        </mxCell>
        <mxCell id="vGkKIb1Py9J2XmLNlMeF-14" value="konfiguracja" style="text;html=1;strokeColor=none;fillColor=none;align=center;verticalAlign=middle;whiteSpace=wrap;rounded=0;rotation=-90;" vertex="1" parent="1">
          <mxGeometry x="354" y="310" width="40" height="20" as="geometry" />
        </mxCell>
        <mxCell id="vGkKIb1Py9J2XmLNlMeF-15" value="ustawienia systemu" style="text;html=1;strokeColor=none;fillColor=none;align=center;verticalAlign=middle;whiteSpace=wrap;rounded=0;rotation=-90;" vertex="1" parent="1">
          <mxGeometry x="440" y="310" width="40" height="20" as="geometry" />
        </mxCell>
        <mxCell id="vGkKIb1Py9J2XmLNlMeF-18" value="przydziela zadanie" style="text;html=1;strokeColor=none;fillColor=none;align=center;verticalAlign=middle;whiteSpace=wrap;rounded=0;" vertex="1" parent="1">
          <mxGeometry x="230" y="180" width="110" height="20" as="geometry" />
        </mxCell>
        <mxCell id="vGkKIb1Py9J2XmLNlMeF-23" value="odbiera zadanie" style="text;html=1;strokeColor=none;fillColor=none;align=center;verticalAlign=middle;whiteSpace=wrap;rounded=0;" vertex="1" parent="1">
          <mxGeometry x="490" y="180" width="130" height="20" as="geometry" />
        </mxCell>
        <mxCell id="vGkKIb1Py9J2XmLNlMeF-22" value="wysyła raport" style="text;html=1;strokeColor=none;fillColor=none;align=center;verticalAlign=middle;whiteSpace=wrap;rounded=0;" vertex="1" parent="1">
          <mxGeometry x="500" y="220" width="110" height="20" as="geometry" />
        </mxCell>
        <mxCell id="vGkKIb1Py9J2XmLNlMeF-27" style="edgeStyle=orthogonalEdgeStyle;rounded=0;orthogonalLoop=1;jettySize=auto;html=1;exitX=0;exitY=0.5;exitDx=0;exitDy=0;entryX=1;entryY=0.5;entryDx=0;entryDy=0;" edge="1" parent="1" source="vGkKIb1Py9J2XmLNlMeF-9" target="vGkKIb1Py9J2XmLNlMeF-22">
          <mxGeometry relative="1" as="geometry">
            <mxPoint x="640" y="240" as="sourcePoint" />
            <mxPoint x="474" y="240" as="targetPoint" />
          </mxGeometry>
        </mxCell>
        <mxCell id="vGkKIb1Py9J2XmLNlMeF-30" value="odbiera raport" style="text;html=1;strokeColor=none;fillColor=none;align=center;verticalAlign=middle;whiteSpace=wrap;rounded=0;" vertex="1" parent="1">
          <mxGeometry x="225" y="220" width="100" height="20" as="geometry" />
        </mxCell>
        <mxCell id="vGkKIb1Py9J2XmLNlMeF-31" style="edgeStyle=orthogonalEdgeStyle;rounded=0;orthogonalLoop=1;jettySize=auto;html=1;exitX=0;exitY=0.5;exitDx=0;exitDy=0;entryX=1;entryY=0.5;entryDx=0;entryDy=0;" edge="1" parent="1" source="vGkKIb1Py9J2XmLNlMeF-1" target="vGkKIb1Py9J2XmLNlMeF-30">
          <mxGeometry relative="1" as="geometry">
            <mxPoint x="354" y="240" as="sourcePoint" />
            <mxPoint x="200" y="240" as="targetPoint" />
          </mxGeometry>
        </mxCell>
        <mxCell id="vGkKIb1Py9J2XmLNlMeF-35" value="dane spotkania" style="text;html=1;strokeColor=none;fillColor=none;align=center;verticalAlign=middle;whiteSpace=wrap;rounded=0;" vertex="1" parent="1">
          <mxGeometry x="220" y="250" width="110" height="20" as="geometry" />
        </mxCell>
        <mxCell id="vGkKIb1Py9J2XmLNlMeF-40" value="alert o spotkaniu" style="text;html=1;strokeColor=none;fillColor=none;align=center;verticalAlign=middle;whiteSpace=wrap;rounded=0;" vertex="1" parent="1">
          <mxGeometry x="505" y="250" width="100" height="20" as="geometry" />
        </mxCell>
      </root>
    </mxGraphModel>
  </diagram>
</mxfile>
